# xmcd CD database file generated by OrangeCD 5.2
#
# Track frame offsets:
#	150
#	19220
#	48417
#	71025
#	96197
#	120037
#	138815
#	167342
#	187222
#
# Disc length: 2948 seconds
#
# Revision: 3
# Processed by: cddbd v1.5PL3 Copyright (c) Steve Scherf et al.
# Submitted via: OrangeCD 5.2
#
DISCID=710b8209
DTITLE=Howlin' Wolf - In Concert
DYEAR=1993
DGENRE=Blues
TTITLE0=Shake It For Me
TTITLE1=Love Me
TTITLE2=Dust My Broom
TTITLE3=I Didn't Mean To Hurt Your Feelings
TTITLE4=Rockin' The Blues
TTITLE5=All My Life
TTITLE6=Goin' Down Slow
TTITLE7=Howlin' For My Darlin'
TTITLE8=Forty Four
EXTD=Howlin' Wolf a.k.a. Chester Arthur Burnett\nThis album a.k.a. The Collecti
EXTD=on
EXTT0=
EXTT1=
EXTT2=
EXTT3=
EXTT4=
EXTT5=
EXTT6=
EXTT7=
EXTT8=
PLAYORDER=
